<svg width="20" height="20" viewBox="0 0 20 20" fill="none" xmlns="http://www.w3.org/2000/svg">
<path d="M10 4.16663C8.61667 4.16663 7.5 5.28329 7.5 6.66663C7.5 8.04996 8.61667 9.16663 10 9.16663C11.3833 9.16663 12.5 8.04996 12.5 6.66663C12.5 5.28329 11.3833 4.16663 10 4.16663ZM10 8.33329C9.08333 8.33329 8.33333 7.58329 8.33333 6.66663C8.33333 5.74996 9.08333 4.99996 10 4.99996C10.9167 4.99996 11.6667 5.74996 11.6667 6.66663C11.6667 7.58329 10.9167 8.33329 10 8.33329Z" fill="#231F20"/>
<path d="M9.99996 1.66663C5.39996 1.66663 1.66663 5.39996 1.66663 9.99996C1.66663 13.1 3.35829 15.8083 5.87496 17.2416C6.19163 17.425 6.52496 17.5833 6.87496 17.725C7.84163 18.1166 8.89163 18.3333 9.99996 18.3333C11.1083 18.3333 12.1583 18.1166 13.125 17.725C13.475 17.5833 13.8083 17.425 14.125 17.2416C16.6416 15.8083 18.3333 13.1 18.3333 9.99996C18.3333 5.39996 14.6 1.66663 9.99996 1.66663ZM9.99996 17.5C8.81663 17.5 7.69996 17.225 6.69996 16.7333V10.9333C6.69996 10.9333 6.73329 10.8666 6.76663 10.8666H13.2333C13.2333 10.8666 13.3 10.9 13.3 10.9333V16.7333C12.3 17.225 11.1833 17.5 9.99996 17.5ZM14.1666 16.2333V10.9333C14.1666 10.4166 13.75 9.99996 13.2333 9.99996H6.76663C6.24996 9.99996 5.83329 10.4166 5.83329 10.9333V16.2333C3.82496 14.8833 2.49996 12.5916 2.49996 9.99996C2.49996 5.86663 5.86663 2.49996 9.99996 2.49996C14.1333 2.49996 17.5 5.86663 17.5 9.99996C17.5 12.5916 16.175 14.8833 14.1666 16.2333Z" fill="#231F20"/>
</svg>
