<svg width="20" height="20" viewBox="0 0 20 20" fill="none" xmlns="http://www.w3.org/2000/svg">
<path d="M17.5 3.33329H16.6666V2.49996H15.8333V3.33329H14.1666V2.49996H13.3333V3.33329H11.6666C11.6666 2.41663 10.9166 1.66663 9.99996 1.66663C9.08329 1.66663 8.33329 2.41663 8.33329 3.33329H6.66663V2.49996H5.83329V3.33329H4.16663V2.49996H3.33329V3.33329H2.49996C2.04163 3.33329 1.66663 3.70829 1.66663 4.16663V15C1.66663 15.9166 2.41663 16.6666 3.33329 16.6666H16.6666C17.5833 16.6666 18.3333 15.9166 18.3333 15V4.16663C18.3333 3.70829 17.9583 3.33329 17.5 3.33329ZM9.99996 2.49996C10.4583 2.49996 10.8333 2.87496 10.8333 3.33329H9.16663C9.16663 2.87496 9.54163 2.49996 9.99996 2.49996ZM17.5 15C17.5 15.4583 17.125 15.8333 16.6666 15.8333H3.33329C2.87496 15.8333 2.49996 15.4583 2.49996 15V7.49996H17.5V15ZM17.5 6.66663H2.49996V4.16663H3.33329V4.99996H4.16663V4.16663H5.83329V4.99996H6.66663V4.16663H13.3333V4.99996H14.1666V4.16663H15.8333V4.99996H16.6666V4.16663H17.5V6.66663Z" fill="#231F20"/>
<path d="M5.83329 9.16663H4.16663V10.8333H5.83329V9.16663Z" fill="#231F20"/>
<path d="M5.83329 12.5H4.16663V14.1667H5.83329V12.5Z" fill="#231F20"/>
<path d="M9.16667 9.16663H7.5V10.8333H9.16667V9.16663Z" fill="#231F20"/>
<path d="M9.16667 12.5H7.5V14.1667H9.16667V12.5Z" fill="#231F20"/>
<path d="M12.5 9.16663H10.8334V10.8333H12.5V9.16663Z" fill="#231F20"/>
<path d="M12.5 12.5H10.8334V14.1667H12.5V12.5Z" fill="#231F20"/>
<path d="M15.8333 9.16663H14.1666V10.8333H15.8333V9.16663Z" fill="#231F20"/>
<path d="M15.8333 12.5H14.1666V14.1667H15.8333V12.5Z" fill="#231F20"/>
</svg>
