<svg width="32" height="32" viewBox="0 0 32 32" fill="none" xmlns="http://www.w3.org/2000/svg">
<path d="M16 8C13.7866 8 12 9.78667 12 12V20C12 21.9867 13.44 23.6267 15.3333 23.9333V26.6667H13.3333V28H18.6666V26.6667H16.6666V23.9333C18.56 23.6267 20 21.9867 20 20V12C20 9.78667 18.2133 8 16 8ZM18.6666 13.3333H17.3333V14.6667H18.6666V17.3333H17.3333V18.6667H18.6666V20C18.6666 21.4667 17.4666 22.6667 16 22.6667C14.5333 22.6667 13.3333 21.4667 13.3333 20V18.6667H14.6666V17.3333H13.3333V14.6667H14.6666V13.3333H13.3333V12C13.3333 10.5333 14.5333 9.33333 16 9.33333C17.4666 9.33333 18.6666 10.5333 18.6666 12V13.3333Z" fill="white"/>
<path d="M25.3333 12H24C24 7.58667 20.4133 4 16 4C11.5866 4 7.99996 7.58667 7.99996 12H6.66663C4.45329 12 2.66663 13.7867 2.66663 16V18.6667C2.66663 20.88 4.45329 22.6667 6.66663 22.6667H7.99996C8.73329 22.6667 9.33329 22.0667 9.33329 21.3333V12C9.33329 8.32 12.32 5.33333 16 5.33333C19.68 5.33333 22.6666 8.32 22.6666 12V21.3333C22.6666 22.0667 23.2666 22.6667 24 22.6667H25.3333C27.5466 22.6667 29.3333 20.88 29.3333 18.6667V16C29.3333 13.7867 27.5466 12 25.3333 12ZM7.99996 21.3333H6.66663C5.19996 21.3333 3.99996 20.1333 3.99996 18.6667V16C3.99996 14.5333 5.19996 13.3333 6.66663 13.3333H7.99996V21.3333ZM28 18.6667C28 20.1333 26.8 21.3333 25.3333 21.3333H24V13.3333H25.3333C26.8 13.3333 28 14.5333 28 16V18.6667Z" fill="white"/>
</svg>
